<mxfile host="app.diagrams.net" modified="2024-07-21T01:38:59.849Z" agent="Mozilla/5.0 (Macintosh; Intel Mac OS X 10_15_7) AppleWebKit/537.36 (KHTML, like Gecko) Chrome/126.0.0.0 Safari/537.36" version="24.7.2" etag="sUfQCgk8cGEgCple1-Yb" type="github">
  <diagram name="Page-1" id="M35ovS-rmIGS2w6yg_n9">
    <mxGraphModel>
      <root>
        <mxCell id="0" />
        <mxCell id="1" parent="0" />
      </root>
    </mxGraphModel>
  </diagram>
</mxfile>
